<svg width="114" height="114" viewBox="0 0 114 114" fill="none" xmlns="http://www.w3.org/2000/svg">
<rect width="114" height="114" fill="#8A1002"/>
<path d="M47.2201 31.4V65H39.4441V37.64H32.7241V31.4H47.2201ZM67.457 44.024C72.193 44.024 75.681 44.968 77.921 46.856C80.193 48.744 81.329 51.272 81.329 54.44C81.329 56.488 80.817 58.36 79.793 60.056C78.769 61.72 77.201 63.064 75.089 64.088C73.009 65.08 70.433 65.576 67.361 65.576C64.993 65.576 62.657 65.272 60.353 64.664C58.081 64.024 56.145 63.128 54.545 61.976L57.617 56.024C58.897 56.984 60.369 57.736 62.033 58.28C63.697 58.792 65.409 59.048 67.169 59.048C69.121 59.048 70.657 58.664 71.777 57.896C72.897 57.128 73.457 56.056 73.457 54.68C73.457 53.24 72.865 52.152 71.681 51.416C70.529 50.68 68.513 50.312 65.633 50.312H57.041L58.769 31.4H79.265V37.64H65.249L64.721 44.024H67.457Z" fill="#F6F6F6"/>
<path d="M27.1492 94.894H22.5992L21.7022 97H19.9602L24.0552 87.9H25.7192L29.8272 97H28.0592L27.1492 94.894ZM26.5902 93.568L24.8742 89.59L23.1712 93.568H26.5902ZM38.435 90.058V95.947C38.435 98.391 37.187 99.613 34.691 99.613C34.0237 99.613 33.391 99.5263 32.793 99.353C32.195 99.1883 31.701 98.9457 31.311 98.625L32.039 97.403C32.3423 97.6543 32.7237 97.8537 33.183 98.001C33.651 98.157 34.1233 98.235 34.6 98.235C35.3627 98.235 35.9217 98.0617 36.277 97.715C36.6323 97.3683 36.81 96.8397 36.81 96.129V95.765C36.5327 96.0683 36.1947 96.298 35.796 96.454C35.3973 96.61 34.9597 96.688 34.483 96.688C33.8243 96.688 33.2263 96.5493 32.689 96.272C32.1603 95.986 31.74 95.5873 31.428 95.076C31.1247 94.5647 30.973 93.9797 30.973 93.321C30.973 92.6623 31.1247 92.0817 31.428 91.579C31.74 91.0677 32.1603 90.6733 32.689 90.396C33.2263 90.1187 33.8243 89.98 34.483 89.98C34.9857 89.98 35.4407 90.0623 35.848 90.227C36.264 90.3917 36.6107 90.643 36.888 90.981V90.058H38.435ZM34.73 95.31C35.3453 95.31 35.848 95.128 36.238 94.764C36.6367 94.3913 36.836 93.9103 36.836 93.321C36.836 92.7403 36.6367 92.268 36.238 91.904C35.848 91.54 35.3453 91.358 34.73 91.358C34.106 91.358 33.5947 91.54 33.196 91.904C32.806 92.268 32.611 92.7403 32.611 93.321C32.611 93.9103 32.806 94.3913 33.196 94.764C33.5947 95.128 34.106 95.31 34.73 95.31ZM44.4714 97.091C43.7694 97.091 43.1367 96.9393 42.5734 96.636C42.01 96.3327 41.568 95.9123 41.2474 95.375C40.9354 94.829 40.7794 94.2137 40.7794 93.529C40.7794 92.8443 40.9354 92.2333 41.2474 91.696C41.568 91.1587 42.01 90.7383 42.5734 90.435C43.1367 90.1317 43.7694 89.98 44.4714 89.98C45.182 89.98 45.819 90.1317 46.3824 90.435C46.9457 90.7383 47.3834 91.1587 47.6954 91.696C48.016 92.2333 48.1764 92.8443 48.1764 93.529C48.1764 94.2137 48.016 94.829 47.6954 95.375C47.3834 95.9123 46.9457 96.3327 46.3824 96.636C45.819 96.9393 45.182 97.091 44.4714 97.091ZM44.4714 95.7C45.0694 95.7 45.5634 95.5007 45.9534 95.102C46.3434 94.7033 46.5384 94.179 46.5384 93.529C46.5384 92.879 46.3434 92.3547 45.9534 91.956C45.5634 91.5573 45.0694 91.358 44.4714 91.358C43.8734 91.358 43.3794 91.5573 42.9894 91.956C42.608 92.3547 42.4174 92.879 42.4174 93.529C42.4174 94.179 42.608 94.7033 42.9894 95.102C43.3794 95.5007 43.8734 95.7 44.4714 95.7ZM55.039 87.354H56.534V99.522H55.039V87.354ZM70.0684 95.57V97H63.3604V95.869L66.9744 92.437C67.3817 92.047 67.6547 91.709 67.7934 91.423C67.9407 91.1283 68.0144 90.838 68.0144 90.552C68.0144 90.1273 67.8714 89.8023 67.5854 89.577C67.2994 89.3517 66.879 89.239 66.3244 89.239C65.397 89.239 64.6864 89.5553 64.1924 90.188L63.0094 89.278C63.3647 88.8013 63.8414 88.433 64.4394 88.173C65.046 87.9043 65.722 87.77 66.4674 87.77C67.4554 87.77 68.244 88.004 68.8334 88.472C69.4227 88.94 69.7174 89.577 69.7174 90.383C69.7174 90.877 69.6134 91.3407 69.4054 91.774C69.1974 92.2073 68.7987 92.7013 68.2094 93.256L65.7784 95.57H70.0684ZM75.5817 97.13C74.8537 97.13 74.2037 96.948 73.6317 96.584C73.0597 96.2113 72.609 95.674 72.2797 94.972C71.9503 94.2613 71.7857 93.4207 71.7857 92.45C71.7857 91.4793 71.9503 90.643 72.2797 89.941C72.609 89.2303 73.0597 88.693 73.6317 88.329C74.2037 87.9563 74.8537 87.77 75.5817 87.77C76.3097 87.77 76.9597 87.9563 77.5317 88.329C78.1123 88.693 78.5673 89.2303 78.8967 89.941C79.226 90.643 79.3907 91.4793 79.3907 92.45C79.3907 93.4207 79.226 94.2613 78.8967 94.972C78.5673 95.674 78.1123 96.2113 77.5317 96.584C76.9597 96.948 76.3097 97.13 75.5817 97.13ZM75.5817 95.661C76.2317 95.661 76.743 95.3923 77.1157 94.855C77.497 94.3177 77.6877 93.516 77.6877 92.45C77.6877 91.384 77.497 90.5823 77.1157 90.045C76.743 89.5077 76.2317 89.239 75.5817 89.239C74.9403 89.239 74.429 89.5077 74.0477 90.045C73.675 90.5823 73.4887 91.384 73.4887 92.45C73.4887 93.516 73.675 94.3177 74.0477 94.855C74.429 95.3923 74.9403 95.661 75.5817 95.661ZM87.8403 95.57V97H81.1323V95.869L84.7463 92.437C85.1536 92.047 85.4266 91.709 85.5653 91.423C85.7126 91.1283 85.7863 90.838 85.7863 90.552C85.7863 90.1273 85.6433 89.8023 85.3573 89.577C85.0713 89.3517 84.6509 89.239 84.0963 89.239C83.1689 89.239 82.4583 89.5553 81.9643 90.188L80.7813 89.278C81.1366 88.8013 81.6133 88.433 82.2113 88.173C82.8179 87.9043 83.4939 87.77 84.2393 87.77C85.2273 87.77 86.0159 88.004 86.6053 88.472C87.1946 88.94 87.4893 89.577 87.4893 90.383C87.4893 90.877 87.3853 91.3407 87.1773 91.774C86.9693 92.2073 86.5706 92.7013 85.9813 93.256L83.5503 95.57H87.8403ZM92.7417 87.9V97H91.0517V89.317H89.1277V87.9H92.7417Z" fill="#F6F6F6"/>
</svg>
